<!--
radio (1).svg
sveltekit-tailwind-starter-template

Created by Ian Thompson on May 29th 2023
ianthompson@nicelion.com
https://www.nicelion.com

Copyright (c) 2023 Nice Lion Technologies LLC. All Rights Reserved.

-->
<svg xmlns="http://www.w3.org/2000/svg" version="1.1" xmlns:xlink="http://www.w3.org/1999/xlink" xmlns:svgjs="http://svgjs.com/svgjs" width="512" height="512" x="0" y="0" viewBox="0 0 64 64" style="enable-background:new 0 0 512 512" xml:space="preserve" class=""><g><path d="M58 33H36a1.001 1.001 0 0 1 0-2h12c1.654 0 3-1.346 3-3v-1h-2v1c0 .552-.449 1-1 1H36c-1.654 0-3 1.346-3 3s1.346 3 3 3h22c1.654 0 3 1.346 3 3s-1.346 3-3 3h-5v2h5c2.757 0 5-2.243 5-5s-2.243-5-5-5z" fill="#ffffff" data-original="#000000" class=""></path><path d="M48 39H6c-1.654 0-3 1.346-3 3v16c0 1.654 1.346 3 3 3h42c1.654 0 3-1.346 3-3V42c0-1.654-1.346-3-3-3zm-3 3h2a1 1 0 0 1 1 1v2a1 1 0 0 1-1 1h-2zm-5 1a1 1 0 0 1 1-1h2v4h-2a1 1 0 0 1-1-1zM11 59H7v-2h4zm8 0h-4v-2h4zm8 0h-4v-2h4zm8 0h-4v-2h4zm1-6a1 1 0 0 1-1 1H7a1 1 0 0 1-1-1V43a1 1 0 0 1 1-1h28a1 1 0 0 1 1 1zm8 6c-2.757 0-5-2.243-5-5s2.243-5 5-5 5 2.243 5 5-2.243 5-5 5z" fill="#ffffff" data-original="#000000" class=""></path><path d="M45 51.184V53h-2v-1.816A2.996 2.996 0 0 0 41 54c0 1.654 1.346 3 3 3s3-1.346 3-3a2.996 2.996 0 0 0-2-2.816zM21.829 48.105 19 44.333l-2.829 3.772L14.618 45H9v2h4.382l2.447 4.895L19 47.667l3.171 4.228L23.618 49H33v-2H22.382zM49 25h2c3.309 0 6-2.691 6-6V6c0-1.654-1.346-3-3-3h-8c-1.654 0-3 1.346-3 3v13c0 3.309 2.691 6 6 6zm0-2h-2v-2h2zm4 0h-2v-2h2zM45 5h10v2H45zm0 4h10v2H45zm0 4h10v2H45zm0 4h10v2H45zM61 15V8c0-.552-.449-1-1-1h-1v10l1.6-1.2c.251-.188.4-.487.4-.8zM34.362 22.771l1.275-1.541C33.937 19.82 33 17.964 33 16s.937-3.82 2.638-5.229L34.363 9.23C32.194 11.025 31 13.431 31 16s1.194 4.975 3.362 6.771z" fill="#ffffff" data-original="#000000" class=""></path><path d="m30.362 26.771 1.275-1.541C28.647 22.752 27 19.475 27 16s1.647-6.752 4.638-9.229L30.363 5.23C26.904 8.094 25 11.919 25 16s1.904 7.906 5.362 10.771z" fill="#ffffff" data-original="#000000" class=""></path><path d="m26.369 30.775 1.263-1.551C23.355 25.741 21 21.045 21 16s2.355-9.741 6.631-13.225l-1.263-1.551C21.617 5.096 19 10.343 19 16s2.617 10.904 7.369 14.775z" fill="#ffffff" data-original="#000000" class=""></path></g></svg>