
<?xml version="1.0" encoding="UTF-8" standalone="no"?>
<!-- Created with Inkscape (http://www.inkscape.org/) -->

<svg
   version="1.1"
   id="svg540"
   xml:space="preserve"
   width="682.66669"
   height="682.66669"
   viewBox="0 0 682.66669 682.66669"
   xmlns="http://www.w3.org/2000/svg"
   xmlns:svg="http://www.w3.org/2000/svg"><defs
     id="defs544"><clipPath
       clipPathUnits="userSpaceOnUse"
       id="clipPath554"><path
         d="M 0,512 H 512 V 0 H 0 Z"
         id="path552" /></clipPath></defs><g
     id="g546"
     transform="matrix(1.3333333,0,0,-1.3333333,0,682.66667)"><g
       id="g548"><g
         id="g550"
         clip-path="url(#clipPath554)"><g
           id="g556"
           transform="translate(256,448.1855)"><path
             d="m 0,0 v 0 c -19.416,0 -35.155,-15.739 -35.155,-35.155 v -314.061 c 0,-19.416 15.739,-35.155 35.155,-35.155 19.416,0 35.155,15.739 35.155,35.155 V -35.155 C 35.155,-15.739 19.416,0 0,0 Z"
             style="fill:none;stroke:#000000;stroke-width:15;stroke-linecap:round;stroke-linejoin:round;stroke-miterlimit:10;stroke-dasharray:none;stroke-opacity:1"
             id="path558" /></g><g
           id="g560"
           transform="translate(42.6548,352.7656)"><path
             d="m 0,0 v 0 c -19.416,0 -35.155,-15.739 -35.155,-35.154 v -123.223 c 0,-19.415 15.739,-35.154 35.155,-35.154 v 0 c 19.415,0 35.154,15.739 35.154,35.154 V -35.154 C 35.154,-15.739 19.415,0 0,0 Z"
             style="fill:none;stroke:#000000;stroke-width:15;stroke-linecap:round;stroke-linejoin:round;stroke-miterlimit:10;stroke-dasharray:none;stroke-opacity:1"
             id="path562" /></g><g
           id="g564"
           transform="translate(184.4819,314.7539)"><path
             d="m 0,0 v 50.567 c 0,19.415 -15.739,35.155 -35.155,35.155 -19.415,0 -35.154,-15.74 -35.154,-35.155 v -218.642 c 0,-19.415 15.739,-35.154 35.154,-35.154 19.416,0 35.155,15.739 35.155,35.154 L 0,-30"
             style="fill:none;stroke:#000000;stroke-width:15;stroke-linecap:round;stroke-linejoin:round;stroke-miterlimit:10;stroke-dasharray:none;stroke-opacity:1"
             id="path566" /></g><g
           id="g568"
           transform="translate(434.1909,317.6113)"><path
             d="m 0,0 v -123.223 c 0,-19.415 15.739,-35.154 35.154,-35.154 h 10e-4 c 19.415,0 35.154,15.739 35.154,35.154 V 0 c 0,19.415 -15.739,35.154 -35.154,35.154 H 35.154 C 15.739,35.154 0,19.415 0,0 Z"
             style="fill:none;stroke:#000000;stroke-width:15;stroke-linecap:round;stroke-linejoin:round;stroke-miterlimit:10;stroke-dasharray:none;stroke-opacity:1"
             id="path570" /></g><g
           id="g572"
           transform="translate(397.8271,238.0459)"><path
             d="m 0,0 v 127.275 c 0,19.415 -15.739,35.155 -35.154,35.155 h -10e-4 c -19.415,0 -35.154,-15.74 -35.154,-35.155 V -91.367 c 0,-19.415 15.739,-35.154 35.154,-35.154 h 10e-4 c 19.415,0 35.154,15.739 35.154,35.154 L 0,-30"
             style="fill:none;stroke:#000000;stroke-width:15;stroke-linecap:round;stroke-linejoin:round;stroke-miterlimit:10;stroke-dasharray:none;stroke-opacity:1"
             id="path574" /></g></g></g></g></svg>
